<svg xmlns="http://www.w3.org/2000/svg" xmlns:xlink="http://www.w3.org/1999/xlink" width="304" zoomAndPan="magnify" viewBox="0 0 228 9.75" height="13" preserveAspectRatio="xMidYMid meet" version="1.2"><g id="c5bd682c16"><path style=" stroke:none;fill-rule:nonzero;fill:#ffffff;fill-opacity:1;" d="M 8.113281 0.144531 C 8.402344 0.140625 8.6875 0.171875 8.96875 0.226562 C 9.25 0.28125 9.527344 0.367188 9.792969 0.476562 C 10.058594 0.585938 10.3125 0.722656 10.550781 0.878906 C 10.789062 1.039062 11.011719 1.222656 11.214844 1.425781 C 11.421875 1.628906 11.601562 1.851562 11.761719 2.089844 C 11.921875 2.328125 12.058594 2.582031 12.167969 2.847656 C 12.277344 3.113281 12.363281 3.390625 12.417969 3.671875 C 12.476562 3.953125 12.503906 4.238281 12.503906 4.527344 C 12.503906 4.816406 12.476562 5.101562 12.417969 5.382812 C 12.363281 5.667969 12.28125 5.941406 12.171875 6.207031 C 12.058594 6.472656 11.925781 6.726562 11.765625 6.964844 C 11.605469 7.207031 11.421875 7.425781 11.21875 7.628906 C 11.015625 7.835938 10.796875 8.015625 10.554688 8.175781 C 10.316406 8.335938 10.0625 8.472656 9.796875 8.582031 C 9.53125 8.691406 9.257812 8.777344 8.972656 8.832031 C 8.691406 8.890625 8.40625 8.917969 8.117188 8.917969 C 7.828125 8.917969 7.542969 8.890625 7.261719 8.832031 C 6.980469 8.777344 6.703125 8.695312 6.4375 8.585938 C 6.171875 8.476562 5.917969 8.339844 5.679688 8.179688 C 5.441406 8.019531 5.21875 7.839844 5.015625 7.632812 C 4.8125 7.429688 4.628906 7.210938 4.46875 6.96875 C 4.308594 6.730469 4.171875 6.476562 4.0625 6.210938 C 3.953125 5.945312 3.867188 5.671875 3.8125 5.390625 C 3.757812 5.105469 3.726562 4.820312 3.726562 4.53125 C 3.726562 4.246094 3.753906 3.960938 3.8125 3.675781 C 3.867188 3.394531 3.949219 3.121094 4.058594 2.855469 C 4.171875 2.585938 4.304688 2.335938 4.464844 2.09375 C 4.625 1.855469 4.808594 1.632812 5.011719 1.429688 C 5.214844 1.226562 5.4375 1.042969 5.675781 0.882812 C 5.914062 0.722656 6.167969 0.589844 6.433594 0.476562 C 6.699219 0.367188 6.972656 0.285156 7.257812 0.226562 C 7.539062 0.171875 7.824219 0.144531 8.113281 0.144531 Z M 25.664062 0.132812 C 25.953125 0.132812 26.238281 0.160156 26.519531 0.214844 C 26.800781 0.273438 27.078125 0.355469 27.34375 0.464844 C 27.609375 0.574219 27.863281 0.710938 28.101562 0.871094 C 28.339844 1.03125 28.5625 1.210938 28.765625 1.414062 C 28.972656 1.617188 29.152344 1.839844 29.3125 2.078125 C 29.472656 2.320312 29.609375 2.570312 29.71875 2.835938 C 29.828125 3.105469 29.914062 3.378906 29.96875 3.660156 C 30.027344 3.941406 30.054688 4.226562 30.054688 4.515625 C 30.054688 4.804688 30.027344 5.089844 29.96875 5.371094 C 29.914062 5.65625 29.832031 5.929688 29.722656 6.195312 C 29.609375 6.460938 29.476562 6.714844 29.316406 6.953125 C 29.15625 7.195312 28.976562 7.414062 28.769531 7.621094 C 28.566406 7.824219 28.347656 8.003906 28.105469 8.164062 C 27.867188 8.324219 27.613281 8.460938 27.347656 8.570312 C 27.082031 8.683594 26.808594 8.765625 26.523438 8.820312 C 26.242188 8.878906 25.957031 8.90625 25.667969 8.90625 C 25.378906 8.90625 25.09375 8.878906 24.8125 8.824219 C 24.53125 8.765625 24.253906 8.683594 23.988281 8.574219 C 23.722656 8.464844 23.46875 8.328125 23.230469 8.167969 C 22.992188 8.007812 22.769531 7.828125 22.566406 7.625 C 22.363281 7.421875 22.179688 7.199219 22.019531 6.960938 C 21.859375 6.71875 21.722656 6.46875 21.613281 6.199219 C 21.503906 5.933594 21.417969 5.660156 21.363281 5.378906 C 21.308594 5.09375 21.277344 4.808594 21.277344 4.523438 C 21.277344 4.234375 21.304688 3.949219 21.363281 3.664062 C 21.417969 3.382812 21.5 3.109375 21.609375 2.84375 C 21.722656 2.578125 21.855469 2.324219 22.015625 2.085938 C 22.175781 1.84375 22.359375 1.621094 22.5625 1.417969 C 22.765625 1.214844 22.988281 1.03125 23.226562 0.871094 C 23.464844 0.710938 23.71875 0.578125 23.984375 0.46875 C 24.25 0.355469 24.523438 0.273438 24.808594 0.214844 C 25.089844 0.160156 25.375 0.132812 25.664062 0.132812 Z M 43.214844 0.121094 C 43.503906 0.121094 43.789062 0.148438 44.070312 0.203125 C 44.351562 0.261719 44.628906 0.34375 44.894531 0.453125 C 45.160156 0.5625 45.414062 0.699219 45.652344 0.859375 C 45.890625 1.019531 46.113281 1.199219 46.316406 1.402344 C 46.523438 1.609375 46.703125 1.828125 46.863281 2.070312 C 47.023438 2.308594 47.160156 2.5625 47.269531 2.828125 C 47.378906 3.09375 47.464844 3.367188 47.519531 3.648438 C 47.578125 3.933594 47.605469 4.21875 47.605469 4.503906 C 47.605469 4.792969 47.578125 5.078125 47.519531 5.363281 C 47.464844 5.644531 47.382812 5.917969 47.273438 6.183594 C 47.160156 6.449219 47.027344 6.703125 46.867188 6.945312 C 46.707031 7.183594 46.527344 7.40625 46.320312 7.609375 C 46.117188 7.8125 45.898438 7.996094 45.65625 8.15625 C 45.417969 8.316406 45.164062 8.449219 44.898438 8.5625 C 44.632812 8.671875 44.359375 8.753906 44.078125 8.8125 C 43.792969 8.867188 43.507812 8.894531 43.21875 8.894531 C 42.929688 8.894531 42.644531 8.867188 42.363281 8.8125 C 42.082031 8.757812 41.804688 8.671875 41.539062 8.5625 C 41.273438 8.453125 41.019531 8.316406 40.78125 8.15625 C 40.542969 8 40.320312 7.816406 40.117188 7.613281 C 39.914062 7.410156 39.730469 7.1875 39.570312 6.949219 C 39.410156 6.707031 39.273438 6.457031 39.164062 6.191406 C 39.054688 5.921875 38.96875 5.648438 38.914062 5.367188 C 38.859375 5.085938 38.828125 4.800781 38.828125 4.511719 C 38.828125 4.222656 38.855469 3.9375 38.914062 3.65625 C 38.96875 3.371094 39.050781 3.097656 39.164062 2.832031 C 39.273438 2.566406 39.40625 2.3125 39.566406 2.074219 C 39.726562 1.832031 39.910156 1.613281 40.113281 1.40625 C 40.316406 1.203125 40.539062 1.023438 40.777344 0.863281 C 41.015625 0.703125 41.269531 0.566406 41.535156 0.457031 C 41.800781 0.34375 42.074219 0.261719 42.359375 0.207031 C 42.640625 0.148438 42.925781 0.121094 43.214844 0.121094 Z M 60.765625 0.109375 C 61.054688 0.109375 61.339844 0.136719 61.621094 0.195312 C 61.90625 0.25 62.179688 0.332031 62.445312 0.441406 C 62.710938 0.554688 62.964844 0.6875 63.203125 0.847656 C 63.445312 1.007812 63.664062 1.191406 63.867188 1.394531 C 64.074219 1.597656 64.253906 1.816406 64.414062 2.058594 C 64.574219 2.296875 64.710938 2.550781 64.820312 2.816406 C 64.929688 3.082031 65.015625 3.355469 65.070312 3.640625 C 65.128906 3.921875 65.15625 4.207031 65.15625 4.496094 C 65.15625 4.78125 65.128906 5.066406 65.070312 5.351562 C 65.015625 5.632812 64.933594 5.90625 64.824219 6.175781 C 64.714844 6.441406 64.578125 6.691406 64.417969 6.933594 C 64.257812 7.171875 64.078125 7.394531 63.871094 7.597656 C 63.667969 7.800781 63.449219 7.984375 63.207031 8.144531 C 62.96875 8.304688 62.714844 8.441406 62.449219 8.550781 C 62.183594 8.660156 61.910156 8.742188 61.628906 8.800781 C 61.34375 8.855469 61.058594 8.886719 60.769531 8.886719 C 60.480469 8.886719 60.195312 8.855469 59.914062 8.800781 C 59.632812 8.746094 59.355469 8.660156 59.089844 8.550781 C 58.824219 8.441406 58.570312 8.308594 58.332031 8.148438 C 58.09375 7.988281 57.871094 7.804688 57.667969 7.601562 C 57.464844 7.398438 57.28125 7.175781 57.121094 6.9375 C 56.960938 6.699219 56.824219 6.445312 56.714844 6.179688 C 56.605469 5.914062 56.519531 5.636719 56.464844 5.355469 C 56.410156 5.074219 56.378906 4.789062 56.378906 4.5 C 56.378906 4.210938 56.40625 3.925781 56.464844 3.644531 C 56.519531 3.363281 56.601562 3.085938 56.714844 2.820312 C 56.824219 2.554688 56.957031 2.300781 57.117188 2.0625 C 57.277344 1.824219 57.460938 1.601562 57.664062 1.398438 C 57.867188 1.191406 58.089844 1.011719 58.328125 0.851562 C 58.566406 0.691406 58.820312 0.554688 59.085938 0.445312 C 59.351562 0.335938 59.625 0.25 59.910156 0.195312 C 60.191406 0.136719 60.476562 0.109375 60.765625 0.109375 Z M 78.316406 0.0976562 C 78.605469 0.0976562 78.890625 0.125 79.171875 0.183594 C 79.457031 0.238281 79.730469 0.320312 79.996094 0.433594 C 80.261719 0.542969 80.515625 0.675781 80.753906 0.835938 C 80.996094 0.996094 81.214844 1.179688 81.417969 1.382812 C 81.625 1.585938 81.804688 1.808594 81.964844 2.046875 C 82.125 2.285156 82.261719 2.539062 82.371094 2.804688 C 82.480469 3.070312 82.566406 3.34375 82.621094 3.628906 C 82.679688 3.910156 82.707031 4.195312 82.707031 4.484375 C 82.707031 4.773438 82.679688 5.058594 82.625 5.339844 C 82.566406 5.621094 82.484375 5.898438 82.375 6.164062 C 82.265625 6.429688 82.128906 6.683594 81.96875 6.921875 C 81.808594 7.160156 81.628906 7.382812 81.421875 7.585938 C 81.21875 7.789062 81 7.972656 80.757812 8.132812 C 80.519531 8.292969 80.265625 8.429688 80 8.539062 C 79.734375 8.648438 79.460938 8.734375 79.179688 8.789062 C 78.894531 8.84375 78.609375 8.875 78.320312 8.875 C 78.03125 8.875 77.746094 8.847656 77.464844 8.789062 C 77.183594 8.734375 76.910156 8.652344 76.640625 8.542969 C 76.375 8.429688 76.121094 8.296875 75.882812 8.136719 C 75.644531 7.976562 75.421875 7.792969 75.21875 7.589844 C 75.015625 7.386719 74.832031 7.164062 74.671875 6.925781 C 74.511719 6.6875 74.375 6.433594 74.265625 6.167969 C 74.15625 5.902344 74.070312 5.628906 74.015625 5.34375 C 73.960938 5.0625 73.929688 4.777344 73.929688 4.488281 C 73.929688 4.203125 73.957031 3.914062 74.015625 3.632812 C 74.070312 3.351562 74.152344 3.078125 74.265625 2.808594 C 74.375 2.542969 74.507812 2.289062 74.667969 2.050781 C 74.828125 1.8125 75.011719 1.589844 75.214844 1.386719 C 75.417969 1.183594 75.640625 1 75.878906 0.839844 C 76.117188 0.679688 76.371094 0.542969 76.636719 0.433594 C 76.902344 0.324219 77.175781 0.242188 77.460938 0.183594 C 77.742188 0.128906 78.027344 0.0976562 78.316406 0.0976562 Z M 95.867188 0.0898438 C 96.15625 0.0898438 96.441406 0.117188 96.722656 0.171875 C 97.007812 0.226562 97.28125 0.3125 97.546875 0.421875 C 97.8125 0.53125 98.066406 0.667969 98.304688 0.824219 C 98.546875 0.984375 98.765625 1.167969 98.972656 1.371094 C 99.175781 1.574219 99.355469 1.796875 99.515625 2.035156 C 99.675781 2.273438 99.8125 2.527344 99.921875 2.792969 C 100.03125 3.058594 100.117188 3.335938 100.171875 3.617188 C 100.230469 3.898438 100.257812 4.183594 100.257812 4.472656 C 100.257812 4.761719 100.230469 5.046875 100.175781 5.328125 C 100.117188 5.613281 100.035156 5.886719 99.925781 6.152344 C 99.816406 6.417969 99.679688 6.671875 99.519531 6.910156 C 99.359375 7.152344 99.179688 7.371094 98.972656 7.574219 C 98.769531 7.78125 98.550781 7.960938 98.308594 8.121094 C 98.070312 8.28125 97.816406 8.417969 97.550781 8.527344 C 97.285156 8.636719 97.011719 8.722656 96.730469 8.777344 C 96.445312 8.835938 96.160156 8.863281 95.871094 8.863281 C 95.585938 8.863281 95.296875 8.835938 95.015625 8.78125 C 94.734375 8.722656 94.460938 8.640625 94.191406 8.53125 C 93.925781 8.421875 93.671875 8.285156 93.433594 8.125 C 93.195312 7.964844 92.972656 7.785156 92.769531 7.578125 C 92.566406 7.375 92.382812 7.15625 92.222656 6.914062 C 92.0625 6.675781 91.925781 6.421875 91.816406 6.15625 C 91.707031 5.890625 91.625 5.617188 91.566406 5.335938 C 91.511719 5.050781 91.480469 4.765625 91.480469 4.476562 C 91.480469 4.191406 91.507812 3.90625 91.566406 3.621094 C 91.621094 3.339844 91.703125 3.066406 91.816406 2.800781 C 91.925781 2.53125 92.058594 2.28125 92.21875 2.039062 C 92.378906 1.800781 92.5625 1.578125 92.765625 1.375 C 92.96875 1.171875 93.191406 0.988281 93.429688 0.828125 C 93.667969 0.667969 93.921875 0.535156 94.1875 0.421875 C 94.453125 0.3125 94.726562 0.230469 95.011719 0.171875 C 95.292969 0.117188 95.578125 0.0898438 95.867188 0.0898438 Z M 113.417969 0.078125 C 113.707031 0.078125 113.992188 0.105469 114.273438 0.160156 C 114.558594 0.21875 114.832031 0.300781 115.097656 0.410156 C 115.363281 0.519531 115.617188 0.65625 115.855469 0.816406 C 116.097656 0.976562 116.316406 1.15625 116.523438 1.359375 C 116.726562 1.5625 116.90625 1.785156 117.066406 2.023438 C 117.226562 2.265625 117.363281 2.515625 117.472656 2.78125 C 117.585938 3.050781 117.667969 3.324219 117.722656 3.605469 C 117.78125 3.886719 117.808594 4.175781 117.808594 4.460938 C 117.808594 4.75 117.78125 5.035156 117.726562 5.316406 C 117.667969 5.601562 117.585938 5.875 117.476562 6.140625 C 117.367188 6.40625 117.230469 6.660156 117.070312 6.898438 C 116.910156 7.140625 116.730469 7.363281 116.527344 7.566406 C 116.320312 7.769531 116.101562 7.949219 115.859375 8.109375 C 115.621094 8.269531 115.367188 8.40625 115.101562 8.515625 C 114.835938 8.628906 114.5625 8.710938 114.28125 8.765625 C 113.996094 8.824219 113.710938 8.851562 113.425781 8.851562 L 113.421875 8.851562 C 113.136719 8.851562 112.847656 8.824219 112.566406 8.769531 C 112.285156 8.710938 112.011719 8.628906 111.742188 8.519531 C 111.476562 8.410156 111.222656 8.273438 110.984375 8.113281 C 110.746094 7.953125 110.523438 7.773438 110.320312 7.570312 C 110.117188 7.367188 109.933594 7.144531 109.773438 6.90625 C 109.613281 6.664062 109.476562 6.414062 109.367188 6.144531 C 109.257812 5.878906 109.175781 5.605469 109.117188 5.324219 C 109.0625 5.039062 109.03125 4.753906 109.03125 4.46875 C 109.03125 4.179688 109.058594 3.894531 109.117188 3.613281 C 109.171875 3.328125 109.253906 3.054688 109.367188 2.789062 C 109.476562 2.523438 109.609375 2.269531 109.769531 2.03125 C 109.929688 1.789062 110.113281 1.566406 110.316406 1.363281 C 110.519531 1.160156 110.742188 0.976562 110.980469 0.816406 C 111.21875 0.65625 111.472656 0.523438 111.738281 0.414062 C 112.003906 0.300781 112.277344 0.21875 112.5625 0.160156 C 112.84375 0.105469 113.128906 0.078125 113.417969 0.078125 Z M 130.96875 0.0664062 C 131.257812 0.0664062 131.542969 0.09375 131.824219 0.148438 C 132.109375 0.207031 132.382812 0.289062 132.648438 0.398438 C 132.914062 0.507812 133.167969 0.644531 133.40625 0.804688 C 133.648438 0.964844 133.867188 1.144531 134.074219 1.347656 C 134.277344 1.554688 134.457031 1.773438 134.617188 2.015625 C 134.777344 2.253906 134.914062 2.507812 135.023438 2.773438 C 135.136719 3.039062 135.21875 3.3125 135.273438 3.59375 C 135.332031 3.878906 135.359375 4.164062 135.359375 4.449219 C 135.359375 4.738281 135.332031 5.023438 135.277344 5.308594 C 135.21875 5.589844 135.136719 5.863281 135.027344 6.128906 C 134.917969 6.398438 134.78125 6.648438 134.621094 6.890625 C 134.460938 7.128906 134.28125 7.351562 134.078125 7.554688 C 133.871094 7.757812 133.652344 7.941406 133.410156 8.101562 C 133.171875 8.261719 132.917969 8.394531 132.652344 8.507812 C 132.386719 8.617188 132.113281 8.699219 131.832031 8.757812 C 131.546875 8.8125 131.261719 8.839844 130.976562 8.839844 L 130.972656 8.839844 C 130.6875 8.839844 130.402344 8.8125 130.117188 8.757812 C 129.835938 8.703125 129.5625 8.617188 129.292969 8.507812 C 129.027344 8.398438 128.777344 8.261719 128.535156 8.101562 C 128.296875 7.945312 128.074219 7.761719 127.871094 7.558594 C 127.667969 7.355469 127.484375 7.132812 127.324219 6.894531 C 127.164062 6.652344 127.027344 6.402344 126.917969 6.136719 C 126.808594 5.871094 126.726562 5.59375 126.667969 5.3125 C 126.613281 5.03125 126.582031 4.746094 126.582031 4.457031 C 126.582031 4.167969 126.613281 3.882812 126.667969 3.601562 C 126.722656 3.316406 126.804688 3.042969 126.917969 2.777344 C 127.027344 2.511719 127.160156 2.257812 127.320312 2.019531 C 127.480469 1.777344 127.664062 1.558594 127.867188 1.351562 C 128.070312 1.148438 128.292969 0.96875 128.53125 0.808594 C 128.769531 0.648438 129.023438 0.511719 129.289062 0.402344 C 129.554688 0.289062 129.828125 0.207031 130.113281 0.152344 C 130.394531 0.09375 130.679688 0.0664062 130.96875 0.0664062 Z M 148.519531 0.0546875 C 148.808594 0.0546875 149.09375 0.0820312 149.375 0.140625 C 149.660156 0.195312 149.933594 0.277344 150.199219 0.386719 C 150.464844 0.5 150.71875 0.632812 150.957031 0.792969 C 151.199219 0.953125 151.417969 1.136719 151.625 1.339844 C 151.828125 1.542969 152.007812 1.761719 152.167969 2.003906 C 152.328125 2.242188 152.464844 2.496094 152.574219 2.761719 C 152.6875 3.027344 152.769531 3.300781 152.824219 3.585938 C 152.882812 3.867188 152.910156 4.152344 152.910156 4.441406 C 152.910156 4.726562 152.882812 5.011719 152.828125 5.296875 C 152.769531 5.578125 152.6875 5.851562 152.578125 6.121094 C 152.46875 6.386719 152.332031 6.636719 152.171875 6.878906 C 152.011719 7.117188 151.832031 7.339844 151.628906 7.542969 C 151.421875 7.746094 151.203125 7.929688 150.960938 8.089844 C 150.722656 8.25 150.46875 8.386719 150.203125 8.496094 C 149.9375 8.605469 149.664062 8.6875 149.382812 8.746094 C 149.097656 8.800781 148.8125 8.832031 148.527344 8.832031 L 148.523438 8.832031 C 148.238281 8.832031 147.953125 8.800781 147.667969 8.746094 C 147.386719 8.691406 147.113281 8.609375 146.84375 8.496094 C 146.578125 8.386719 146.328125 8.253906 146.085938 8.09375 C 145.847656 7.933594 145.625 7.75 145.421875 7.546875 C 145.21875 7.34375 145.035156 7.121094 144.875 6.882812 C 144.714844 6.644531 144.578125 6.390625 144.46875 6.125 C 144.359375 5.859375 144.277344 5.585938 144.21875 5.300781 C 144.164062 5.019531 144.132812 4.734375 144.132812 4.445312 C 144.132812 4.15625 144.164062 3.871094 144.21875 3.589844 C 144.273438 3.308594 144.355469 3.03125 144.46875 2.765625 C 144.578125 2.5 144.710938 2.246094 144.871094 2.007812 C 145.03125 1.769531 145.214844 1.546875 145.417969 1.34375 C 145.621094 1.136719 145.84375 0.957031 146.082031 0.796875 C 146.320312 0.636719 146.574219 0.5 146.839844 0.390625 C 147.105469 0.28125 147.378906 0.195312 147.664062 0.140625 C 147.945312 0.0820312 148.230469 0.0546875 148.519531 0.0546875 Z M 166.070312 0.0429688 C 166.359375 0.0429688 166.644531 0.0703125 166.925781 0.128906 C 167.210938 0.183594 167.484375 0.265625 167.75 0.378906 C 168.015625 0.488281 168.269531 0.621094 168.507812 0.78125 C 168.75 0.941406 168.96875 1.125 169.175781 1.328125 C 169.378906 1.53125 169.558594 1.753906 169.71875 1.992188 C 169.878906 2.230469 170.015625 2.484375 170.125 2.75 C 170.238281 3.015625 170.320312 3.289062 170.375 3.574219 C 170.433594 3.855469 170.460938 4.140625 170.460938 4.429688 C 170.460938 4.71875 170.433594 5.003906 170.378906 5.285156 C 170.320312 5.566406 170.238281 5.84375 170.128906 6.109375 C 170.019531 6.375 169.882812 6.628906 169.722656 6.867188 C 169.5625 7.105469 169.382812 7.328125 169.179688 7.53125 C 168.972656 7.734375 168.753906 7.917969 168.511719 8.078125 C 168.273438 8.238281 168.019531 8.375 167.753906 8.484375 C 167.488281 8.59375 167.214844 8.679688 166.933594 8.734375 C 166.648438 8.789062 166.363281 8.820312 166.078125 8.820312 L 166.074219 8.820312 C 165.789062 8.820312 165.503906 8.792969 165.21875 8.734375 C 164.9375 8.679688 164.664062 8.597656 164.394531 8.488281 C 164.128906 8.375 163.878906 8.242188 163.636719 8.082031 C 163.398438 7.921875 163.175781 7.738281 162.972656 7.535156 C 162.769531 7.332031 162.585938 7.109375 162.425781 6.871094 C 162.265625 6.632812 162.128906 6.378906 162.019531 6.113281 C 161.910156 5.847656 161.828125 5.574219 161.769531 5.289062 C 161.714844 5.007812 161.683594 4.722656 161.683594 4.433594 C 161.683594 4.148438 161.714844 3.859375 161.769531 3.578125 C 161.824219 3.296875 161.910156 3.023438 162.019531 2.753906 C 162.128906 2.488281 162.261719 2.234375 162.421875 1.996094 C 162.582031 1.757812 162.765625 1.535156 162.96875 1.332031 C 163.171875 1.128906 163.394531 0.945312 163.632812 0.785156 C 163.871094 0.625 164.125 0.488281 164.390625 0.378906 C 164.65625 0.269531 164.933594 0.1875 165.214844 0.128906 C 165.496094 0.0742188 165.78125 0.0429688 166.070312 0.0429688 Z M 183.621094 0.0351562 C 183.910156 0.0351562 184.195312 0.0625 184.476562 0.117188 C 184.761719 0.171875 185.035156 0.257812 185.300781 0.367188 C 185.566406 0.476562 185.820312 0.613281 186.058594 0.769531 C 186.300781 0.929688 186.519531 1.113281 186.726562 1.316406 C 186.929688 1.519531 187.109375 1.742188 187.269531 1.980469 C 187.429688 2.21875 187.566406 2.472656 187.675781 2.738281 C 187.789062 3.003906 187.871094 3.28125 187.925781 3.5625 C 187.984375 3.84375 188.011719 4.128906 188.011719 4.417969 C 188.011719 4.707031 187.984375 4.992188 187.929688 5.273438 C 187.871094 5.558594 187.789062 5.832031 187.679688 6.097656 C 187.570312 6.363281 187.433594 6.617188 187.273438 6.855469 C 187.113281 7.097656 186.933594 7.316406 186.730469 7.523438 C 186.523438 7.726562 186.304688 7.90625 186.0625 8.066406 C 185.824219 8.226562 185.570312 8.363281 185.304688 8.472656 C 185.039062 8.582031 184.765625 8.667969 184.484375 8.722656 C 184.199219 8.78125 183.914062 8.808594 183.628906 8.808594 L 183.625 8.808594 C 183.339844 8.808594 183.054688 8.78125 182.769531 8.726562 C 182.488281 8.667969 182.214844 8.585938 181.945312 8.476562 C 181.679688 8.367188 181.429688 8.230469 181.1875 8.070312 C 180.949219 7.910156 180.726562 7.730469 180.523438 7.527344 C 180.320312 7.320312 180.136719 7.101562 179.976562 6.859375 C 179.816406 6.621094 179.683594 6.367188 179.570312 6.101562 C 179.460938 5.835938 179.378906 5.5625 179.320312 5.28125 C 179.265625 4.996094 179.238281 4.710938 179.234375 4.421875 C 179.234375 4.136719 179.265625 3.851562 179.320312 3.566406 C 179.375 3.285156 179.460938 3.011719 179.570312 2.746094 C 179.679688 2.476562 179.8125 2.226562 179.972656 1.984375 C 180.132812 1.746094 180.316406 1.523438 180.519531 1.320312 C 180.722656 1.117188 180.945312 0.933594 181.183594 0.773438 C 181.421875 0.613281 181.675781 0.480469 181.941406 0.367188 C 182.207031 0.257812 182.484375 0.175781 182.765625 0.117188 C 183.046875 0.0625 183.332031 0.0351562 183.621094 0.0351562 Z M 201.171875 0.0234375 C 201.460938 0.0234375 201.746094 0.0507812 202.027344 0.105469 C 202.3125 0.164062 202.585938 0.246094 202.851562 0.355469 C 203.117188 0.464844 203.371094 0.601562 203.609375 0.761719 C 203.851562 0.921875 204.070312 1.101562 204.277344 1.304688 C 204.480469 1.507812 204.660156 1.730469 204.820312 1.96875 C 204.980469 2.210938 205.117188 2.460938 205.226562 2.730469 C 205.339844 2.996094 205.421875 3.269531 205.476562 3.550781 C 205.535156 3.835938 205.5625 4.121094 205.5625 4.40625 C 205.5625 4.695312 205.535156 4.980469 205.480469 5.261719 C 205.421875 5.546875 205.339844 5.820312 205.230469 6.085938 C 205.121094 6.351562 204.984375 6.605469 204.824219 6.84375 C 204.664062 7.085938 204.484375 7.308594 204.28125 7.511719 C 204.078125 7.714844 203.855469 7.898438 203.617188 8.058594 C 203.375 8.21875 203.125 8.351562 202.855469 8.460938 C 202.589844 8.574219 202.316406 8.65625 202.035156 8.710938 C 201.75 8.769531 201.464844 8.796875 201.179688 8.796875 L 201.175781 8.796875 C 200.890625 8.796875 200.605469 8.769531 200.320312 8.714844 C 200.039062 8.65625 199.765625 8.574219 199.5 8.464844 C 199.230469 8.355469 198.980469 8.21875 198.738281 8.058594 C 198.5 7.898438 198.277344 7.71875 198.074219 7.515625 C 197.871094 7.3125 197.6875 7.089844 197.527344 6.851562 C 197.367188 6.609375 197.234375 6.359375 197.121094 6.089844 C 197.011719 5.824219 196.929688 5.550781 196.871094 5.269531 C 196.816406 4.984375 196.789062 4.699219 196.789062 4.414062 C 196.785156 4.125 196.816406 3.839844 196.871094 3.558594 C 196.925781 3.273438 197.011719 3 197.121094 2.734375 C 197.230469 2.46875 197.363281 2.214844 197.523438 1.976562 C 197.683594 1.734375 197.867188 1.511719 198.070312 1.308594 C 198.273438 1.105469 198.496094 0.921875 198.734375 0.761719 C 198.972656 0.601562 199.226562 0.46875 199.492188 0.359375 C 199.757812 0.246094 200.035156 0.164062 200.316406 0.109375 C 200.597656 0.0507812 200.882812 0.0234375 201.171875 0.0234375 Z M 218.722656 0.0117188 C 219.011719 0.0117188 219.296875 0.0390625 219.578125 0.09375 C 219.863281 0.152344 220.136719 0.234375 220.402344 0.34375 C 220.667969 0.453125 220.921875 0.589844 221.160156 0.75 C 221.402344 0.910156 221.621094 1.089844 221.828125 1.292969 C 222.03125 1.5 222.210938 1.71875 222.371094 1.960938 C 222.53125 2.199219 222.667969 2.453125 222.777344 2.71875 C 222.890625 2.984375 222.972656 3.257812 223.027344 3.539062 C 223.085938 3.824219 223.113281 4.109375 223.113281 4.398438 C 223.113281 4.683594 223.085938 4.96875 223.03125 5.253906 C 222.972656 5.535156 222.890625 5.808594 222.78125 6.074219 C 222.671875 6.34375 222.535156 6.59375 222.375 6.835938 C 222.214844 7.074219 222.035156 7.296875 221.832031 7.5 C 221.628906 7.703125 221.40625 7.886719 221.167969 8.046875 C 220.925781 8.207031 220.675781 8.339844 220.40625 8.453125 C 220.140625 8.5625 219.867188 8.644531 219.585938 8.703125 C 219.300781 8.757812 219.015625 8.785156 218.730469 8.785156 L 218.726562 8.785156 C 218.441406 8.785156 218.15625 8.757812 217.871094 8.703125 C 217.589844 8.648438 217.316406 8.5625 217.050781 8.453125 C 216.78125 8.34375 216.53125 8.207031 216.289062 8.046875 C 216.050781 7.890625 215.828125 7.707031 215.625 7.503906 C 215.421875 7.300781 215.238281 7.078125 215.078125 6.839844 C 214.917969 6.601562 214.785156 6.347656 214.671875 6.082031 C 214.5625 5.816406 214.480469 5.539062 214.421875 5.257812 C 214.367188 4.976562 214.339844 4.691406 214.339844 4.402344 C 214.335938 4.113281 214.367188 3.828125 214.421875 3.546875 C 214.476562 3.261719 214.5625 2.988281 214.671875 2.722656 C 214.78125 2.457031 214.914062 2.203125 215.074219 1.964844 C 215.234375 1.722656 215.417969 1.503906 215.621094 1.296875 C 215.824219 1.09375 216.046875 0.914062 216.285156 0.753906 C 216.523438 0.59375 216.777344 0.457031 217.042969 0.347656 C 217.308594 0.238281 217.585938 0.152344 217.867188 0.0976562 C 218.148438 0.0390625 218.433594 0.0117188 218.722656 0.0117188 Z M 218.722656 0.0117188 "/></g></svg>